<svg width="153" height="55" viewBox="0 0 153 55" fill="none" xmlns="http://www.w3.org/2000/svg">
<path d="M137.838 25.0043C133.386 25.0043 129.789 26.5334 127.135 28.9169L116.702 18.3485C114.633 20.5521 112.384 22.2161 109.102 22.2161C104.29 22.2161 101.546 18.9331 101.546 14.5709C101.546 10.2086 104.29 6.92565 108.697 6.92565C111.62 6.92565 113.509 8.31978 114.903 9.66893L119.445 4.67707C116.837 1.97876 113.284 0 108.697 0C99.4326 0 93.5863 6.52091 93.5863 14.5709C93.5863 17.494 94.3508 20.1474 95.7449 22.4409L89.3589 28.9618C86.7056 26.5334 83.1078 25.0493 78.6556 25.0493C69.3914 25.0493 63.5451 31.5702 63.5451 39.6201C63.5451 47.6701 69.4364 54.236 78.6556 54.236C87.9198 54.236 93.7661 47.6701 93.7661 39.6201C93.7661 37.4165 93.3164 35.3028 92.5069 33.414L99.4776 26.3984C101.951 28.1523 105.054 29.1867 108.742 29.1867C112.295 29.1867 114.993 28.1074 117.241 26.5783L124.032 33.414C123.223 35.3028 122.773 37.4165 122.773 39.6201C122.773 47.6701 128.664 54.236 137.883 54.236C147.103 54.236 152.994 47.6701 152.994 39.6201C152.994 31.5702 147.103 25.0043 137.838 25.0043ZM78.6556 47.3103C74.1135 47.3103 71.5051 43.9374 71.5051 39.5752C71.5051 35.2129 74.1135 31.93 78.6556 31.93C83.1978 31.93 85.8061 35.2129 85.8061 39.5752C85.8061 43.9374 83.1978 47.3103 78.6556 47.3103ZM137.838 47.3103C133.296 47.3103 130.688 43.9374 130.688 39.5752C130.688 35.2129 133.296 31.93 137.838 31.93C142.381 31.93 144.989 35.2129 144.989 39.5752C144.989 43.9374 142.381 47.3103 137.838 47.3103Z" fill="#45DCC3"/>
<path d="M12.9069 25.0044C4.49718 25.0044 0 30.401 0 37.4616V53.5615H7.91503V37.9113C7.91503 34.1786 9.93877 32.1999 12.9069 32.1999C15.875 32.1999 17.7189 34.1786 17.7189 37.9113V53.5615H25.6339V37.4616C25.6339 30.401 21.3166 25.0044 12.9069 25.0044Z" fill="#9EC6BE"/>
<path d="M44.8818 25.0044C35.6176 25.0044 29.7713 31.5253 29.7713 39.5753C29.7713 47.6252 35.6626 54.1911 44.8818 54.1911C54.146 54.1911 59.9923 47.6252 59.9923 39.5753C59.9923 31.5253 54.146 25.0044 44.8818 25.0044ZM44.8818 47.3104C40.3397 47.3104 37.7313 43.9375 37.7313 39.5753C37.7313 35.213 40.3397 31.93 44.8818 31.93C49.424 31.93 52.0323 35.213 52.0323 39.5753C52.0323 43.9375 49.4689 47.3104 44.8818 47.3104Z" fill="#9EC6BE"/>
</svg>
